<svg width="18" height="20" viewBox="0 0 18 20" fill="none" xmlns="http://www.w3.org/2000/svg">
<path d="M4.00012 1.66669L1.50012 5.00002V16.6667C1.50012 17.1087 1.67572 17.5326 1.98828 17.8452C2.30084 18.1578 2.72476 18.3334 3.16679 18.3334H14.8335C15.2755 18.3334 15.6994 18.1578 16.012 17.8452C16.3245 17.5326 16.5001 17.1087 16.5001 16.6667V5.00002L14.0001 1.66669H4.00012Z" stroke="#2D3B87" stroke-width="1.5" stroke-linecap="round" stroke-linejoin="round"/>
<path d="M1.50012 5H16.5001" stroke="#2D3B87" stroke-width="1.5" stroke-linecap="round" stroke-linejoin="round"/>
<path d="M12.3334 8.33337C12.3334 9.21743 11.9822 10.0653 11.3571 10.6904C10.732 11.3155 9.88414 11.6667 9.00008 11.6667C8.11603 11.6667 7.26818 11.3155 6.64306 10.6904C6.01794 10.0653 5.66675 9.21743 5.66675 8.33337" stroke="#2D3B87" stroke-width="1.5" stroke-linecap="round" stroke-linejoin="round"/>
</svg>
