<svg width="18" height="20" viewBox="0 0 18 20" fill="none" xmlns="http://www.w3.org/2000/svg">
<path d="M12.9998 7.57592L5 2.99994" stroke="#2D3B87" stroke-width="1.1" stroke-linecap="round" stroke-linejoin="round"/>
<path d="M17 13.4426V6.33151C16.9997 6.01975 16.9174 5.71356 16.7614 5.44365C16.6054 5.17375 16.3811 4.94961 16.1111 4.79373L9.88889 1.23818C9.61863 1.08214 9.31206 1 9 1C8.68793 1 8.38137 1.08214 8.11111 1.23818L1.88889 4.79373C1.6189 4.94961 1.39465 5.17375 1.23863 5.44365C1.08262 5.71356 1.00032 6.01975 1 6.33151V13.4426C1.00032 13.7544 1.08262 14.0606 1.23863 14.3305C1.39465 14.6004 1.6189 14.8245 1.88889 14.9804L8.11111 18.536C8.38137 18.692 8.68793 18.7741 9 18.7741C9.31206 18.7741 9.61863 18.692 9.88889 18.536L16.1111 14.9804C16.3811 14.8245 16.6054 14.6004 16.7614 14.3305C16.9174 14.0606 16.9997 13.7544 17 13.4426Z" stroke="#2D3B87" stroke-width="1.2" stroke-linecap="round" stroke-linejoin="round"/>
<path d="M1.5 5.50006L9.00024 9.89618L16.5 5.50006" stroke="#2D3B87" stroke-width="1.2" stroke-linecap="round" stroke-linejoin="round"/>
<path d="M8.99951 18L8.99951 9.88867" stroke="#2D3B87" stroke-width="1.2" stroke-linecap="round" stroke-linejoin="round"/>
</svg>
